# This file uses centimeters as units for non-parametric coordinates.

mtllib Girder.mtl
g default
v 0.202485 6.717744 1.579823
v -0.202485 6.717744 1.579823
v -0.404971 6.367030 1.579823
v -0.202485 6.016315 1.579823
v 0.202485 6.016315 1.579823
v 0.404971 6.367030 1.579823
v 0.175357 6.670758 1.782308
v -0.175357 6.670758 1.782308
v -0.350715 6.367030 1.782308
v -0.175357 6.063302 1.782308
v 0.175357 6.063302 1.782308
v 0.350715 6.367030 1.782308
v 0.101243 6.542387 1.930538
v -0.101243 6.542387 1.930538
v -0.202485 6.367030 1.930538
v -0.101243 6.191672 1.930538
v 0.101243 6.191672 1.930538
v 0.202485 6.367030 1.930538
v 0.000000 6.367030 1.984794
vt 0.000000 0.500000
vt 0.166667 0.500000
vt 0.333333 0.500000
vt 0.500000 0.500000
vt 0.666667 0.500000
vt 0.833333 0.500000
vt 1.000000 0.500000
vt 0.000000 0.666667
vt 0.166667 0.666667
vt 0.333333 0.666667
vt 0.500000 0.666667
vt 0.666667 0.666667
vt 0.833333 0.666667
vt 1.000000 0.666667
vt 0.000000 0.833333
vt 0.166667 0.833333
vt 0.333333 0.833333
vt 0.500000 0.833333
vt 0.666667 0.833333
vt 0.833333 0.833333
vt 1.000000 0.833333
vt 0.083333 1.000000
vt 0.250000 1.000000
vt 0.416667 1.000000
vt 0.583333 1.000000
vt 0.750000 1.000000
vt 0.916667 1.000000
vn 0.482963 0.836516 0.258819
vn -0.482964 0.836516 0.258818
vn -0.452519 0.783786 0.425332
vn 0.452519 0.783785 0.425332
vn -0.965926 0.000000 0.258818
vn -0.905038 0.000000 0.425332
vn -0.482964 -0.836516 0.258818
vn -0.452519 -0.783785 0.425332
vn 0.482963 -0.836516 0.258819
vn 0.452519 -0.783785 0.425332
vn 0.965926 -0.000000 0.258819
vn 0.905037 -0.000000 0.425332
vn -0.321962 0.557654 0.765090
vn 0.321962 0.557654 0.765090
vn -0.643924 0.000000 0.765090
vn -0.321961 -0.557654 0.765090
vn 0.321962 -0.557654 0.765090
vn 0.643924 -0.000000 0.765089
vn 0.000000 -0.000000 1.000000
s 1
g pSphere1
usemtl initialShadingGroup
f 1/1/1 2/2/2 8/9/3 7/8/4
f 2/2/2 3/3/5 9/10/6 8/9/3
f 3/3/5 4/4/7 10/11/8 9/10/6
f 4/4/7 5/5/9 11/12/10 10/11/8
f 5/5/9 6/6/11 12/13/12 11/12/10
f 6/6/11 1/7/1 7/14/4 12/13/12
f 7/8/4 8/9/3 14/16/13 13/15/14
f 8/9/3 9/10/6 15/17/15 14/16/13
f 9/10/6 10/11/8 16/18/16 15/17/15
f 10/11/8 11/12/10 17/19/17 16/18/16
f 11/12/10 12/13/12 18/20/18 17/19/17
f 12/13/12 7/14/4 13/21/14 18/20/18
f 13/15/14 14/16/13 19/22/19
f 14/16/13 15/17/15 19/23/19
f 15/17/15 16/18/16 19/24/19
f 16/18/16 17/19/17 19/25/19
f 17/19/17 18/20/18 19/26/19
f 18/20/18 13/21/14 19/27/19
g default
v -2.981030 5.864724 1.579823
v -3.386000 5.864724 1.579823
v -3.588485 5.514009 1.579823
v -3.386000 5.163294 1.579823
v -2.981030 5.163294 1.579823
v -2.778544 5.514009 1.579823
v -3.008157 5.817737 1.782308
v -3.358872 5.817737 1.782308
v -3.534230 5.514009 1.782308
v -3.358872 5.210281 1.782308
v -3.008157 5.210281 1.782308
v -2.832800 5.514009 1.782308
v -3.082272 5.689366 1.930538
v -3.284757 5.689366 1.930538
v -3.386000 5.514009 1.930538
v -3.284757 5.338652 1.930538
v -3.082272 5.338652 1.930538
v -2.981030 5.514009 1.930538
v -3.183515 5.514009 1.984794
vt 0.000000 0.500000
vt 0.166667 0.500000
vt 0.333333 0.500000
vt 0.500000 0.500000
vt 0.666667 0.500000
vt 0.833333 0.500000
vt 1.000000 0.500000
vt 0.000000 0.666667
vt 0.166667 0.666667
vt 0.333333 0.666667
vt 0.500000 0.666667
vt 0.666667 0.666667
vt 0.833333 0.666667
vt 1.000000 0.666667
vt 0.000000 0.833333
vt 0.166667 0.833333
vt 0.333333 0.833333
vt 0.500000 0.833333
vt 0.666667 0.833333
vt 0.833333 0.833333
vt 1.000000 0.833333
vt 0.083333 1.000000
vt 0.250000 1.000000
vt 0.416667 1.000000
vt 0.583333 1.000000
vt 0.750000 1.000000
vt 0.916667 1.000000
vn 0.482963 0.836516 0.258819
vn -0.482963 0.836516 0.258819
vn -0.452518 0.783785 0.425332
vn 0.452519 0.783785 0.425332
vn -0.965926 -0.000000 0.258818
vn -0.905037 -0.000000 0.425332
vn -0.482964 -0.836516 0.258817
vn -0.452519 -0.783786 0.425331
vn 0.482964 -0.836516 0.258817
vn 0.452519 -0.783786 0.425331
vn 0.965926 -0.000000 0.258819
vn 0.905037 -0.000000 0.425332
vn -0.321962 0.557655 0.765090
vn 0.321962 0.557655 0.765089
vn -0.643924 -0.000000 0.765089
vn -0.321962 -0.557655 0.765090
vn 0.321962 -0.557654 0.765090
vn 0.643924 -0.000000 0.765089
vn -0.000000 0.000000 1.000000
s 1
g pSphere2
usemtl initialShadingGroup
f 20/28/20 21/29/21 27/36/22 26/35/23
f 21/29/21 22/30/24 28/37/25 27/36/22
f 22/30/24 23/31/26 29/38/27 28/37/25
f 23/31/26 24/32/28 30/39/29 29/38/27
f 24/32/28 25/33/30 31/40/31 30/39/29
f 25/33/30 20/34/20 26/41/23 31/40/31
f 26/35/23 27/36/22 33/43/32 32/42/33
f 27/36/22 28/37/25 34/44/34 33/43/32
f 28/37/25 29/38/27 35/45/35 34/44/34
f 29/38/27 30/39/29 36/46/36 35/45/35
f 30/39/29 31/40/31 37/47/37 36/46/36
f 31/40/31 26/41/23 32/48/33 37/47/37
f 32/42/33 33/43/32 38/49/38
f 33/43/32 34/44/34 38/50/38
f 34/44/34 35/45/35 38/51/38
f 35/45/35 36/46/36 38/52/38
f 36/46/36 37/47/37 38/53/38
f 37/47/37 32/48/33 38/54/38
g default
v 3.386000 5.864724 1.579823
v 2.981030 5.864724 1.579823
v 2.778544 5.514009 1.579823
v 2.981030 5.163294 1.579823
v 3.386000 5.163294 1.579823
v 3.588485 5.514009 1.579823
v 3.358872 5.817737 1.782308
v 3.008157 5.817737 1.782308
v 2.832800 5.514009 1.782308
v 3.008157 5.210281 1.782308
v 3.358872 5.210281 1.782308
v 3.534230 5.514009 1.782308
v 3.284758 5.689366 1.930538
v 3.082272 5.689366 1.930538
v 2.981030 5.514009 1.930538
v 3.082272 5.338652 1.930538
v 3.284757 5.338652 1.930538
v 3.386000 5.514009 1.930538
v 3.183515 5.514009 1.984794
vt 0.000000 0.500000
vt 0.166667 0.500000
vt 0.333333 0.500000
vt 0.500000 0.500000
vt 0.666667 0.500000
vt 0.833333 0.500000
vt 1.000000 0.500000
vt 0.000000 0.666667
vt 0.166667 0.666667
vt 0.333333 0.666667
vt 0.500000 0.666667
vt 0.666667 0.666667
vt 0.833333 0.666667
vt 1.000000 0.666667
vt 0.000000 0.833333
vt 0.166667 0.833333
vt 0.333333 0.833333
vt 0.500000 0.833333
vt 0.666667 0.833333
vt 0.833333 0.833333
vt 1.000000 0.833333
vt 0.083333 1.000000
vt 0.250000 1.000000
vt 0.416667 1.000000
vt 0.583333 1.000000
vt 0.750000 1.000000
vt 0.916667 1.000000
vn 0.482963 0.836516 0.258819
vn -0.482964 0.836516 0.258819
vn -0.452519 0.783785 0.425332
vn 0.452519 0.783785 0.425332
vn -0.965926 -0.000000 0.258818
vn -0.905037 -0.000000 0.425332
vn -0.482964 -0.836516 0.258817
vn -0.452519 -0.783786 0.425331
vn 0.482964 -0.836516 0.258817
vn 0.452519 -0.783786 0.425331
vn 0.965926 0.000000 0.258819
vn 0.905037 -0.000000 0.425332
vn -0.321962 0.557655 0.765090
vn 0.321962 0.557655 0.765089
vn -0.643924 -0.000000 0.765089
vn -0.321962 -0.557655 0.765089
vn 0.321962 -0.557654 0.765090
vn 0.643924 -0.000000 0.765089
vn -0.000000 0.000000 1.000000
s 1
g pSphere3
usemtl initialShadingGroup
f 39/55/39 40/56/40 46/63/41 45/62/42
f 40/56/40 41/57/43 47/64/44 46/63/41
f 41/57/43 42/58/45 48/65/46 47/64/44
f 42/58/45 43/59/47 49/66/48 48/65/46
f 43/59/47 44/60/49 50/67/50 49/66/48
f 44/60/49 39/61/39 45/68/42 50/67/50
f 45/62/42 46/63/41 52/70/51 51/69/52
f 46/63/41 47/64/44 53/71/53 52/70/51
f 47/64/44 48/65/46 54/72/54 53/71/53
f 48/65/46 49/66/48 55/73/55 54/72/54
f 49/66/48 50/67/50 56/74/56 55/73/55
f 50/67/50 45/68/42 51/75/52 56/74/56
f 51/69/52 52/70/51 57/76/57
f 52/70/51 53/71/53 57/77/57
f 53/71/53 54/72/54 57/78/57
f 54/72/54 55/73/55 57/79/57
f 55/73/55 56/74/56 57/80/57
f 56/74/56 51/75/52 57/81/57
g default
v 3.995133 3.995133 -1.883324
v 1.462320 5.457453 -1.883324
v 3.995133 3.995133 1.883324
v 1.462320 5.457453 1.883324
v 5.326845 5.326845 1.883324
v 1.949760 7.276605 1.883324
v 5.326845 5.326845 -1.883324
v 1.949760 7.276605 -1.883324
v 1.827900 6.821816 -1.883324
v 4.993917 4.993917 -1.883324
v 4.993917 4.993917 1.883324
v 1.827900 6.821816 1.883324
v 1.584180 5.912241 -1.883324
v 4.328061 4.328061 -1.883324
v 4.328061 4.328061 1.883324
v 1.584180 5.912241 1.883324
v 3.361930 4.360713 1.883324
v 3.361930 4.360713 -1.883324
v 3.774486 4.648453 -1.883324
v 4.438831 5.318497 -1.883324
v 4.482574 5.814285 -1.883324
v 4.482574 5.814285 1.883324
v 4.438831 5.318497 1.883324
v 3.774486 4.648453 1.883324
v 1.584180 5.912241 1.650175
v 1.827900 6.821816 1.650175
v 4.438831 5.318497 1.650175
v 3.774486 4.648453 1.650175
v -3.995008 3.995258 -1.883324
v -1.462273 5.457500 -1.883324
v -3.995008 3.995258 1.883324
v -1.462273 5.457500 1.883324
v -5.326720 5.326970 1.883324
v -1.949740 7.276625 1.883324
v -5.326720 5.326970 -1.883324
v -1.949740 7.276625 -1.883324
v -1.827873 6.821843 -1.883324
v -4.993792 4.994042 -1.883324
v -4.993792 4.994042 1.883324
v -1.827873 6.821843 1.883324
v -1.584140 5.912281 -1.883324
v -4.327936 4.328186 -1.883324
v -4.327936 4.328186 1.883324
v -1.584140 5.912281 1.883324
v -3.361824 4.360819 1.883324
v -3.361824 4.360819 -1.883324
v -3.774378 4.648561 -1.883324
v -4.438724 5.318604 -1.883324
v -4.482475 5.814384 -1.883324
v -4.482475 5.814384 1.883324
v -4.438724 5.318604 1.883324
v -3.774378 4.648561 1.883324
v -1.584140 5.912281 1.650175
v -1.827873 6.821843 1.650175
v -4.438724 5.318604 1.650175
v -3.774378 4.648561 1.650175
vt 0.000000 1.000000
vt 0.083333 1.000000
vt 0.000000 0.750000
vt 0.083333 0.750000
vt -0.002490 0.500071
vt 0.083333 0.500000
vt -0.002184 0.249918
vt 0.083333 0.250000
vt 0.000000 0.000000
vt 0.083333 0.000000
vt 0.000000 0.000000
vt 1.000000 0.000000
vt 0.999800 1.784377
vt 0.000529 1.788883
vt 0.083333 0.187500
vt -0.001638 0.187438
vt 0.999850 1.338283
vt -0.001868 0.562553
vt 0.000397 1.341662
vt 0.083333 0.562500
vt 0.083333 0.062500
vt -0.000546 0.062479
vt 0.999950 0.446094
vt -0.000623 0.687518
vt 0.000132 0.447221
vt 0.083333 0.687500
vt 0.020833 0.750000
vt 0.020833 0.000000
vt 0.020833 1.000000
vt 0.020424 0.062485
vt 0.019605 0.187454
vt 0.019195 0.249938
vt 0.018966 0.500053
vt 0.019433 0.562540
vt 0.020366 0.687513
vt 0.083333 0.687500
vt 0.083333 0.562500
vt 0.019433 0.562540
vt 0.020366 0.687513
vt 0.020833 1.000000
vt 0.000000 1.000000
vt 0.000000 0.750000
vt 0.020833 0.750000
vt 0.083333 1.000000
vt 0.083333 0.750000
vt 0.020366 0.687513
vt -0.000623 0.687518
vt 0.083333 0.687500
vt 0.019195 0.249938
vt 0.018966 0.500053
vt -0.002490 0.500071
vt -0.002184 0.249918
vt 0.083333 0.500000
vt 0.083333 0.250000
vt 0.020424 0.062485
vt -0.000546 0.062479
vt 0.000000 0.000000
vt 0.020833 0.000000
vt 0.083333 0.062500
vt 0.083333 0.000000
vt 0.000000 0.000000
vt 1.000000 0.000000
vt 0.999950 0.446094
vt 0.000132 0.447221
vt 0.083333 0.187500
vt -0.001638 0.187438
vt 0.019605 0.187454
vt 0.000397 1.341662
vt 0.999850 1.338283
vt 0.999800 1.784377
vt 0.000529 1.788883
vt 0.019433 0.562540
vt -0.001868 0.562553
vt 0.083333 0.562500
vt 0.083333 0.687500
vt 0.083333 0.562500
vt 0.019433 0.562540
vt 0.020366 0.687513
vn -0.500000 -0.866026 0.000000
vn -0.500000 -0.866025 0.000000
vn -0.500000 -0.866025 0.000000
vn -0.500000 -0.866026 0.000000
vn -0.000016 -1.000000 0.000000
vn -0.000016 -1.000000 0.000000
vn -0.000016 -1.000000 0.000000
vn -0.000016 -1.000000 0.000000
vn 0.000000 0.000000 1.000000
vn 0.000000 0.000000 1.000000
vn 0.000000 0.000000 1.000000
vn 0.000000 0.000000 1.000000
vn 0.000000 0.000000 1.000000
vn 0.000000 0.000000 1.000000
vn -0.000000 0.000000 1.000000
vn -0.000000 0.000000 1.000000
vn 0.500000 0.866026 0.000000
vn 0.500000 0.866026 0.000000
vn 0.500000 0.866025 0.000000
vn 0.500000 0.866025 0.000000
vn 0.000005 1.000000 0.000000
vn 0.000005 1.000000 0.000000
vn 0.000005 1.000000 0.000000
vn 0.000005 1.000000 0.000000
vn 0.000000 0.000000 -1.000000
vn 0.000000 0.000000 -1.000000
vn 0.000000 0.000000 -1.000000
vn 0.000000 0.000000 -1.000000
vn 0.000000 0.000000 -1.000000
vn 0.000000 0.000000 -1.000000
vn -0.000000 0.000000 -1.000000
vn -0.000000 0.000000 -1.000000
vn 0.707107 -0.707107 0.000000
vn 0.707107 -0.707107 0.000000
vn 0.707107 -0.707107 0.000000
vn 0.707107 -0.707107 0.000000
vn -0.000000 0.000000 -1.000000
vn -0.000000 0.000000 -1.000000
vn 0.000000 0.000000 -1.000000
vn 0.000000 0.000000 -1.000000
vn -0.000000 0.000000 -1.000000
vn -0.000000 0.000000 -1.000000
vn -0.000000 0.000000 -1.000000
vn -0.000000 0.000000 -1.000000
vn 0.707107 -0.707107 0.000000
vn 0.707107 -0.707107 0.000000
vn 0.707106 -0.707107 0.000000
vn 0.707106 -0.707107 0.000000
vn -0.000000 0.000000 1.000000
vn 0.000000 0.000000 1.000000
vn 0.000000 0.000000 1.000000
vn -0.000000 0.000000 1.000000
vn -0.000000 0.000000 1.000000
vn -0.000000 0.000000 1.000000
vn -0.000000 0.000000 1.000000
vn -0.000000 0.000000 1.000000
vn -0.000000 0.000000 1.000000
vn -0.000000 0.000000 1.000000
vn -0.000000 0.000000 1.000000
vn -0.000000 0.000000 1.000000
vn -0.500000 -0.866026 0.000000
vn -0.500000 -0.866026 0.000000
vn 0.500000 0.866026 0.000000
vn 0.500000 0.866026 0.000000
vn 0.000000 0.000000 1.000000
vn 0.000000 0.000000 1.000000
vn 0.000012 1.000000 0.000000
vn 0.000012 1.000000 0.000000
vn 0.000012 1.000000 0.000000
vn 0.000012 1.000000 0.000000
vn -0.000007 -1.000000 0.000000
vn -0.000007 -1.000000 0.000000
vn -0.000007 -1.000000 0.000000
vn -0.000007 -1.000000 0.000000
vn -0.498978 -0.866615 0.000000
vn -0.498978 -0.866615 0.000000
vn -0.498978 -0.866615 0.000000
vn -0.498978 -0.866615 0.000000
vn 0.499767 0.866160 0.000000
vn 0.499767 0.866160 0.000000
vn 0.499767 0.866160 0.000000
vn 0.499767 0.866160 0.000000
vn -0.710120 0.704081 0.000000
vn -0.710120 0.704081 0.000000
vn -0.710120 0.704081 0.000000
vn -0.710120 0.704081 0.000000
vn 0.499991 -0.866031 0.000000
vn 0.499991 -0.866031 0.000000
vn 0.499992 -0.866030 0.000000
vn 0.499992 -0.866030 0.000000
vn 0.000000 0.000000 1.000000
vn 0.000000 0.000000 1.000000
vn 0.000000 0.000000 1.000000
vn 0.000000 0.000000 1.000000
vn -0.499991 0.866030 0.000000
vn -0.499992 0.866030 0.000000
vn -0.499992 0.866030 0.000000
vn -0.499991 0.866030 0.000000
vn -0.000000 0.000000 -1.000000
vn -0.000000 0.000000 -1.000000
vn -0.000000 0.000000 -1.000000
vn -0.000000 0.000000 -1.000000
vn -0.707106 -0.707107 0.000000
vn -0.707106 -0.707107 0.000000
vn -0.707106 -0.707107 0.000000
vn -0.707106 -0.707107 0.000000
vn -0.000000 0.000000 -1.000000
vn -0.000000 0.000000 -1.000000
vn -0.000000 0.000000 -1.000000
vn -0.000000 0.000000 -1.000000
vn -0.707107 -0.707107 0.000000
vn -0.707107 -0.707107 0.000000
vn -0.707107 -0.707107 0.000000
vn -0.707107 -0.707107 0.000000
vn -0.000000 0.000000 1.000000
vn -0.000000 0.000000 1.000000
vn -0.000000 0.000000 1.000000
vn -0.000000 0.000000 1.000000
vn 0.499991 -0.866031 0.000000
vn 0.499991 -0.866031 0.000000
vn -0.499991 0.866030 0.000000
vn -0.499991 0.866030 0.000000
vn 0.000000 0.000000 1.000000
vn 0.000000 0.000000 1.000000
vn 0.498970 -0.866619 0.000000
vn 0.498970 -0.866619 0.000000
vn 0.498970 -0.866619 0.000000
vn 0.498970 -0.866619 0.000000
vn -0.499759 0.866165 0.000000
vn -0.499759 0.866165 0.000000
vn -0.499759 0.866165 0.000000
vn -0.499759 0.866165 0.000000
vn 0.710120 0.704081 0.000000
vn 0.710120 0.704081 0.000000
vn 0.710120 0.704081 0.000000
vn 0.710120 0.704081 0.000000
s 1
g pPipe3
usemtl initialShadingGroup
f 75/110/58 58/82/59 60/84/60 74/108/61
s off
f 59/83/62 61/85/63 89/126/64 87/125/65
s 2
f 81/116/66 74/108/67 60/84/68 72/105/69
f 61/85/70 73/107/71 101/129/72 89/126/73
s 3
f 78/113/74 79/114/75 62/86/76 64/88/77
s off
f 63/87/78 65/89/79 93/135/80 91/134/81
s 4
f 76/111/82 71/103/83 58/90/84 75/109/85
f 70/102/86 59/91/87 87/141/88 98/140/89
s 5
f 60/92/90 58/93/91 71/104/92 72/106/93
s 4
f 65/89/94 66/96/95 94/146/96 93/135/97
f 78/113/98 64/88/99 67/97/100 77/112/101
s 5
f 68/100/102 67/98/103 64/94/104 62/95/105
s 2
f 80/115/106 68/99/107 62/86/108 79/114/109
f 69/101/110 63/87/111 91/134/112 97/155/113
s 4
f 66/96/95 70/102/86 98/140/89 94/146/96
f 71/103/83 76/111/82 77/112/101 67/97/100
s 5
f 68/100/102 72/106/93 71/104/92 67/98/103
s 2
f 80/115/106 81/116/66 72/105/69 68/99/107
s 7
f 82/117/114 83/118/115 111/157/116 110/156/117
s 1
f 59/83/118 75/110/58 74/108/61 61/85/119
s 4
f 70/102/86 76/111/82 75/109/85 59/91/87
f 76/111/82 70/102/86 66/96/95 77/112/101
f 65/89/94 78/113/98 77/112/101 66/96/95
s 3
f 63/87/120 79/114/75 78/113/74 65/89/121
s 2
f 69/101/110 80/115/106 79/114/109 63/87/111
s 7
f 84/119/122 83/118/115 82/117/114 85/120/123
s 2
f 61/85/70 74/108/67 81/116/66 73/107/71
s off
f 73/107/124 82/117/125 110/156/126 101/129/127
f 83/118/128 69/101/129 97/155/130 111/157/131
f 80/115/132 69/101/133 83/118/134 84/119/135
f 73/107/136 81/116/137 85/120/138 82/117/139
f 81/116/140 80/115/141 84/119/142 85/120/143
s 8
f 103/121/144 102/124/145 88/123/146 86/122/147
s 2
f 109/127/148 100/128/149 88/123/150 102/124/151
s 10
f 106/130/152 92/133/153 90/132/154 107/131/155
s 4
f 104/136/156 103/139/157 86/138/158 99/137/159
s 11
f 88/142/160 100/145/161 99/144/162 86/143/163
s 4
f 106/130/164 105/148/165 95/147/166 92/133/167
s 11
f 96/149/168 90/152/169 92/151/170 95/150/171
s 2
f 108/153/172 107/131/173 90/132/174 96/154/175
s 4
f 99/137/159 95/147/166 105/148/165 104/136/156
s 11
f 96/149/168 95/150/171 99/144/162 100/145/161
s 2
f 108/153/172 96/154/175 100/128/149 109/127/148
s 8
f 87/125/176 89/126/177 102/124/145 103/121/144
s 4
f 98/140/89 87/141/88 103/139/157 104/136/156
f 104/136/156 105/148/165 94/146/96 98/140/89
f 93/135/97 94/146/96 105/148/165 106/130/164
s 10
f 91/134/178 93/135/179 106/130/152 107/131/155
s 2
f 97/155/113 91/134/112 107/131/173 108/153/172
s 7
f 112/158/180 113/159/181 110/156/117 111/157/116
s 2
f 89/126/73 101/129/72 109/127/148 102/124/151
s off
f 108/153/182 112/158/183 111/157/184 97/155/185
f 101/129/186 110/156/187 113/159/188 109/127/189
f 109/127/190 113/159/191 112/158/192 108/153/193
