# This file uses centimeters as units for non-parametric coordinates.

mtllib girder_01.mtl
g default
v 0.202485 6.717744 1.579823
v -0.202485 6.717744 1.579823
v -0.404971 6.367030 1.579823
v -0.202485 6.016315 1.579823
v 0.202485 6.016315 1.579823
v 0.404971 6.367030 1.579823
v 0.175357 6.670758 1.782308
v -0.175357 6.670758 1.782308
v -0.350715 6.367030 1.782308
v -0.175357 6.063302 1.782308
v 0.175357 6.063302 1.782308
v 0.350715 6.367030 1.782308
v 0.101243 6.542387 1.930538
v -0.101243 6.542387 1.930538
v -0.202485 6.367030 1.930538
v -0.101243 6.191672 1.930538
v 0.101243 6.191672 1.930538
v 0.202485 6.367030 1.930538
v 0.000000 6.367030 1.984794
vt 0.000000 0.500000
vt 0.166667 0.500000
vt 0.166667 0.666667
vt 0.000000 0.666667
vt 0.333333 0.500000
vt 0.333333 0.666667
vt 0.500000 0.500000
vt 0.500000 0.666667
vt 0.666667 0.500000
vt 0.666667 0.666667
vt 0.833333 0.500000
vt 0.833333 0.666667
vt 1.000000 0.500000
vt 1.000000 0.666667
vt 0.166667 0.833333
vt 0.000000 0.833333
vt 0.333333 0.833333
vt 0.500000 0.833333
vt 0.666667 0.833333
vt 0.833333 0.833333
vt 1.000000 0.833333
vt 0.083333 1.000000
vt 0.250000 1.000000
vt 0.416667 1.000000
vt 0.583333 1.000000
vt 0.750000 1.000000
vt 0.916667 1.000000
vn 0.482963 0.836516 0.258819
vn -0.482964 0.836516 0.258818
vn -0.452519 0.783786 0.425332
vn 0.452519 0.783785 0.425332
vn -0.482964 0.836516 0.258818
vn -0.965926 0.000000 0.258818
vn -0.905037 0.000000 0.425332
vn -0.452519 0.783786 0.425332
vn -0.965926 0.000000 0.258818
vn -0.482964 -0.836516 0.258818
vn -0.452519 -0.783785 0.425332
vn -0.905037 0.000000 0.425332
vn -0.482964 -0.836516 0.258818
vn 0.482963 -0.836516 0.258819
vn 0.452519 -0.783785 0.425332
vn -0.452519 -0.783785 0.425332
vn 0.482963 -0.836516 0.258819
vn 0.965926 -0.000000 0.258819
vn 0.905037 -0.000000 0.425332
vn 0.452519 -0.783785 0.425332
vn 0.965926 -0.000000 0.258819
vn 0.482963 0.836516 0.258819
vn 0.452519 0.783785 0.425332
vn 0.905037 -0.000000 0.425332
vn 0.452519 0.783785 0.425332
vn -0.452519 0.783786 0.425332
vn -0.321962 0.557654 0.765090
vn 0.321962 0.557654 0.765090
vn -0.452519 0.783786 0.425332
vn -0.905037 0.000000 0.425332
vn -0.643924 0.000000 0.765090
vn -0.321962 0.557654 0.765090
vn -0.905037 0.000000 0.425332
vn -0.452519 -0.783785 0.425332
vn -0.321961 -0.557654 0.765090
vn -0.643924 0.000000 0.765090
vn -0.452519 -0.783785 0.425332
vn 0.452519 -0.783785 0.425332
vn 0.321962 -0.557654 0.765090
vn -0.321961 -0.557654 0.765090
vn 0.452519 -0.783785 0.425332
vn 0.905037 -0.000000 0.425332
vn 0.643924 -0.000000 0.765089
vn 0.321962 -0.557654 0.765090
vn 0.905037 -0.000000 0.425332
vn 0.452519 0.783785 0.425332
vn 0.321962 0.557654 0.765090
vn 0.643924 -0.000000 0.765089
vn 0.321962 0.557654 0.765090
vn -0.321962 0.557654 0.765090
vn 0.000000 -0.000000 1.000000
vn -0.321962 0.557654 0.765090
vn -0.643924 0.000000 0.765090
vn 0.000000 -0.000000 1.000000
vn -0.643924 0.000000 0.765090
vn -0.321961 -0.557654 0.765090
vn 0.000000 -0.000000 1.000000
vn -0.321961 -0.557654 0.765090
vn 0.321962 -0.557654 0.765090
vn 0.000000 -0.000000 1.000000
vn 0.321962 -0.557654 0.765090
vn 0.643924 -0.000000 0.765089
vn 0.000000 -0.000000 1.000000
vn 0.643924 -0.000000 0.765089
vn 0.321962 0.557654 0.765090
vn 0.000000 -0.000000 1.000000
s off
g Girder:pSphere1
usemtl Girder:initialShadingGroup
f 1/1/1 2/2/2 8/3/3 7/4/4
f 2/2/5 3/5/6 9/6/7 8/3/8
f 3/5/9 4/7/10 10/8/11 9/6/12
f 4/7/13 5/9/14 11/10/15 10/8/16
f 5/9/17 6/11/18 12/12/19 11/10/20
f 6/11/21 1/13/22 7/14/23 12/12/24
f 7/4/25 8/3/26 14/15/27 13/16/28
f 8/3/29 9/6/30 15/17/31 14/15/32
f 9/6/33 10/8/34 16/18/35 15/17/36
f 10/8/37 11/10/38 17/19/39 16/18/40
f 11/10/41 12/12/42 18/20/43 17/19/44
f 12/12/45 7/14/46 13/21/47 18/20/48
f 13/16/49 14/15/50 19/22/51
f 14/15/52 15/17/53 19/23/54
f 15/17/55 16/18/56 19/24/57
f 16/18/58 17/19/59 19/25/60
f 17/19/61 18/20/62 19/26/63
f 18/20/64 13/21/65 19/27/66
g default
v -2.981030 5.864724 1.579823
v -3.386000 5.864724 1.579823
v -3.588485 5.514009 1.579823
v -3.386000 5.163294 1.579823
v -2.981030 5.163294 1.579823
v -2.778544 5.514009 1.579823
v -3.008157 5.817737 1.782308
v -3.358872 5.817737 1.782308
v -3.534230 5.514009 1.782308
v -3.358872 5.210281 1.782308
v -3.008157 5.210281 1.782308
v -2.832800 5.514009 1.782308
v -3.082272 5.689366 1.930538
v -3.284757 5.689366 1.930538
v -3.386000 5.514009 1.930538
v -3.284757 5.338652 1.930538
v -3.082272 5.338652 1.930538
v -2.981030 5.514009 1.930538
v -3.183515 5.514009 1.984794
vt 0.000000 0.500000
vt 0.166667 0.500000
vt 0.166667 0.666667
vt 0.000000 0.666667
vt 0.333333 0.500000
vt 0.333333 0.666667
vt 0.500000 0.500000
vt 0.500000 0.666667
vt 0.666667 0.500000
vt 0.666667 0.666667
vt 0.833333 0.500000
vt 0.833333 0.666667
vt 1.000000 0.500000
vt 1.000000 0.666667
vt 0.166667 0.833333
vt 0.000000 0.833333
vt 0.333333 0.833333
vt 0.500000 0.833333
vt 0.666667 0.833333
vt 0.833333 0.833333
vt 1.000000 0.833333
vt 0.083333 1.000000
vt 0.250000 1.000000
vt 0.416667 1.000000
vt 0.583333 1.000000
vt 0.750000 1.000000
vt 0.916667 1.000000
vn 0.000000 0.974117 0.226046
vn 0.000000 0.974117 0.226046
vn 0.000000 0.974117 0.226046
vn 0.000000 0.974117 0.226046
vn -0.482963 0.836516 0.258819
vn -0.965926 0.000000 0.258818
vn -0.905037 0.000000 0.425332
vn -0.452518 0.783786 0.425332
vn -0.965926 0.000000 0.258818
vn -0.482964 -0.836516 0.258817
vn -0.452519 -0.783786 0.425331
vn -0.905037 0.000000 0.425332
vn -0.482964 -0.836516 0.258817
vn 0.482964 -0.836516 0.258817
vn 0.452519 -0.783786 0.425331
vn -0.452519 -0.783786 0.425331
vn 0.482964 -0.836516 0.258817
vn 0.965926 -0.000000 0.258819
vn 0.905037 -0.000000 0.425332
vn 0.452519 -0.783786 0.425331
vn 0.965926 -0.000000 0.258819
vn 0.482963 0.836516 0.258819
vn 0.452519 0.783785 0.425332
vn 0.905037 -0.000000 0.425332
vn 0.452519 0.783785 0.425332
vn -0.452518 0.783786 0.425332
vn -0.321962 0.557655 0.765090
vn 0.321962 0.557655 0.765089
vn -0.452518 0.783786 0.425332
vn -0.905037 0.000000 0.425332
vn -0.643924 0.000000 0.765089
vn -0.321962 0.557655 0.765090
vn -0.905037 0.000000 0.425332
vn -0.452519 -0.783786 0.425331
vn -0.321962 -0.557655 0.765090
vn -0.643924 0.000000 0.765089
vn -0.452519 -0.783786 0.425331
vn 0.452519 -0.783786 0.425331
vn 0.321962 -0.557654 0.765090
vn -0.321962 -0.557655 0.765090
vn 0.452519 -0.783786 0.425331
vn 0.905037 -0.000000 0.425332
vn 0.643924 -0.000000 0.765089
vn 0.321962 -0.557654 0.765090
vn 0.905037 -0.000000 0.425332
vn 0.452519 0.783785 0.425332
vn 0.321962 0.557655 0.765089
vn 0.643924 -0.000000 0.765089
vn 0.321962 0.557655 0.765089
vn -0.321962 0.557655 0.765090
vn 0.000000 0.000000 1.000000
vn -0.321962 0.557655 0.765090
vn -0.643924 0.000000 0.765089
vn 0.000000 0.000000 1.000000
vn -0.643924 0.000000 0.765089
vn -0.321962 -0.557655 0.765090
vn 0.000000 0.000000 1.000000
vn -0.321962 -0.557655 0.765090
vn 0.321962 -0.557654 0.765090
vn 0.000000 0.000000 1.000000
vn 0.321962 -0.557654 0.765090
vn 0.643924 -0.000000 0.765089
vn 0.000000 0.000000 1.000000
vn 0.643924 -0.000000 0.765089
vn 0.321962 0.557655 0.765089
vn 0.000000 0.000000 1.000000
s off
g Girder:pSphere2
usemtl Girder:initialShadingGroup
f 20/28/67 21/29/68 27/30/69 26/31/70
f 21/29/71 22/32/72 28/33/73 27/30/74
f 22/32/75 23/34/76 29/35/77 28/33/78
f 23/34/79 24/36/80 30/37/81 29/35/82
f 24/36/83 25/38/84 31/39/85 30/37/86
f 25/38/87 20/40/88 26/41/89 31/39/90
f 26/31/91 27/30/92 33/42/93 32/43/94
f 27/30/95 28/33/96 34/44/97 33/42/98
f 28/33/99 29/35/100 35/45/101 34/44/102
f 29/35/103 30/37/104 36/46/105 35/45/106
f 30/37/107 31/39/108 37/47/109 36/46/110
f 31/39/111 26/41/112 32/48/113 37/47/114
f 32/43/115 33/42/116 38/49/117
f 33/42/118 34/44/119 38/50/120
f 34/44/121 35/45/122 38/51/123
f 35/45/124 36/46/125 38/52/126
f 36/46/127 37/47/128 38/53/129
f 37/47/130 32/48/131 38/54/132
g default
v 3.386000 5.864724 1.579823
v 2.981030 5.864724 1.579823
v 2.778544 5.514009 1.579823
v 2.981030 5.163294 1.579823
v 3.386000 5.163294 1.579823
v 3.588485 5.514009 1.579823
v 3.358872 5.817737 1.782308
v 3.008157 5.817737 1.782308
v 2.832800 5.514009 1.782308
v 3.008157 5.210281 1.782308
v 3.358872 5.210281 1.782308
v 3.534230 5.514009 1.782308
v 3.284758 5.689366 1.930538
v 3.082272 5.689366 1.930538
v 2.981030 5.514009 1.930538
v 3.082272 5.338652 1.930538
v 3.284757 5.338652 1.930538
v 3.386000 5.514009 1.930538
v 3.183515 5.514009 1.984794
vt 0.000000 0.500000
vt 0.166667 0.500000
vt 0.166667 0.666667
vt 0.000000 0.666667
vt 0.333333 0.500000
vt 0.333333 0.666667
vt 0.500000 0.500000
vt 0.500000 0.666667
vt 0.666667 0.500000
vt 0.666667 0.666667
vt 0.833333 0.500000
vt 0.833333 0.666667
vt 1.000000 0.500000
vt 1.000000 0.666667
vt 0.166667 0.833333
vt 0.000000 0.833333
vt 0.333333 0.833333
vt 0.500000 0.833333
vt 0.666667 0.833333
vt 0.833333 0.833333
vt 1.000000 0.833333
vt 0.083333 1.000000
vt 0.250000 1.000000
vt 0.416667 1.000000
vt 0.583333 1.000000
vt 0.750000 1.000000
vt 0.916667 1.000000
vn 0.000000 0.974116 0.226048
vn 0.000000 0.974116 0.226048
vn 0.000000 0.974116 0.226048
vn 0.000000 0.974116 0.226048
vn -0.482964 0.836516 0.258819
vn -0.965926 0.000000 0.258818
vn -0.905037 0.000000 0.425332
vn -0.452519 0.783785 0.425332
vn -0.965926 0.000000 0.258818
vn -0.482964 -0.836516 0.258817
vn -0.452519 -0.783786 0.425331
vn -0.905037 0.000000 0.425332
vn -0.482964 -0.836516 0.258817
vn 0.482964 -0.836516 0.258817
vn 0.452519 -0.783786 0.425331
vn -0.452519 -0.783786 0.425331
vn 0.482964 -0.836516 0.258817
vn 0.965926 0.000000 0.258819
vn 0.905037 -0.000000 0.425332
vn 0.452519 -0.783786 0.425331
vn 0.965926 0.000000 0.258819
vn 0.482963 0.836516 0.258819
vn 0.452519 0.783785 0.425332
vn 0.905037 -0.000000 0.425332
vn 0.452519 0.783785 0.425332
vn -0.452519 0.783785 0.425332
vn -0.321962 0.557655 0.765090
vn 0.321962 0.557655 0.765089
vn -0.452519 0.783785 0.425332
vn -0.905037 0.000000 0.425332
vn -0.643924 0.000000 0.765089
vn -0.321962 0.557655 0.765090
vn -0.905037 0.000000 0.425332
vn -0.452519 -0.783786 0.425331
vn -0.321962 -0.557655 0.765089
vn -0.643924 0.000000 0.765089
vn -0.452519 -0.783786 0.425331
vn 0.452519 -0.783786 0.425331
vn 0.321962 -0.557654 0.765090
vn -0.321962 -0.557655 0.765089
vn 0.452519 -0.783786 0.425331
vn 0.905037 -0.000000 0.425332
vn 0.643924 -0.000000 0.765089
vn 0.321962 -0.557654 0.765090
vn 0.905037 -0.000000 0.425332
vn 0.452519 0.783785 0.425332
vn 0.321962 0.557655 0.765089
vn 0.643924 -0.000000 0.765089
vn 0.321962 0.557655 0.765089
vn -0.321962 0.557655 0.765090
vn 0.000000 0.000000 1.000000
vn -0.321962 0.557655 0.765090
vn -0.643924 0.000000 0.765089
vn 0.000000 0.000000 1.000000
vn -0.643924 0.000000 0.765089
vn -0.321962 -0.557655 0.765089
vn 0.000000 0.000000 1.000000
vn -0.321962 -0.557655 0.765089
vn 0.321962 -0.557654 0.765090
vn 0.000000 0.000000 1.000000
vn 0.321962 -0.557654 0.765090
vn 0.643924 -0.000000 0.765089
vn 0.000000 0.000000 1.000000
vn 0.643924 -0.000000 0.765089
vn 0.321962 0.557655 0.765089
vn 0.000000 0.000000 1.000000
s off
g Girder:pSphere3
usemtl Girder:initialShadingGroup
f 39/55/133 40/56/134 46/57/135 45/58/136
f 40/56/137 41/59/138 47/60/139 46/57/140
f 41/59/141 42/61/142 48/62/143 47/60/144
f 42/61/145 43/63/146 49/64/147 48/62/148
f 43/63/149 44/65/150 50/66/151 49/64/152
f 44/65/153 39/67/154 45/68/155 50/66/156
f 45/58/157 46/57/158 52/69/159 51/70/160
f 46/57/161 47/60/162 53/71/163 52/69/164
f 47/60/165 48/62/166 54/72/167 53/71/168
f 48/62/169 49/64/170 55/73/171 54/72/172
f 49/64/173 50/66/174 56/74/175 55/73/176
f 50/66/177 45/68/178 51/75/179 56/74/180
f 51/70/181 52/69/182 57/76/183
f 52/69/184 53/71/185 57/77/186
f 53/71/187 54/72/188 57/78/189
f 54/72/190 55/73/191 57/79/192
f 55/73/193 56/74/194 57/80/195
f 56/74/196 51/75/197 57/81/198
g default
v 3.995133 3.995133 -1.883324
v 1.462320 5.457453 -1.883324
v 3.995133 3.995133 1.883324
v 1.462320 5.457453 1.883324
v 5.326845 5.326845 1.883324
v 1.949760 7.276605 1.883324
v 5.326845 5.326845 -1.883324
v 1.949760 7.276605 -1.883324
v 1.827900 6.821816 -1.883324
v 4.993917 4.993917 -1.883324
v 4.993917 4.993917 1.883324
v 1.827900 6.821816 1.883324
v 1.584180 5.912241 -1.883324
v 4.328061 4.328061 -1.883324
v 4.328061 4.328061 1.883324
v 1.584180 5.912241 1.883324
v 3.361930 4.360713 1.883324
v 3.361930 4.360713 -1.883324
v 3.774486 4.648453 -1.883324
v 4.438831 5.318497 -1.883324
v 4.482574 5.814285 -1.883324
v 4.482574 5.814285 1.883324
v 4.438831 5.318497 1.883324
v 3.774486 4.648453 1.883324
v 1.584180 6.063747 1.650175
v 1.827900 6.670310 1.650175
v 4.210212 5.274734 1.650175
v 3.774486 4.799960 1.650175
v -3.995008 3.995258 -1.883324
v -1.462273 5.457500 -1.883324
v -3.995008 3.995258 1.883324
v -1.462273 5.457500 1.883324
v -5.326720 5.326970 1.883324
v -1.949740 7.276625 1.883324
v -5.326720 5.326970 -1.883324
v -1.949740 7.276625 -1.883324
v -1.827873 6.821843 -1.883324
v -4.993792 4.994042 -1.883324
v -4.993792 4.994042 1.883324
v -1.827873 6.821843 1.883324
v -1.584140 5.912281 -1.883324
v -4.327936 4.328186 -1.883324
v -4.327936 4.328186 1.883324
v -1.584140 5.912281 1.883324
v -3.361824 4.360819 1.883324
v -3.361824 4.360819 -1.883324
v -3.774378 4.648561 -1.883324
v -4.438724 5.318604 -1.883324
v -4.482475 5.814384 -1.883324
v -4.482475 5.814384 1.883324
v -4.438724 5.318604 1.883324
v -3.774378 4.648561 1.883324
v -1.584140 6.063787 1.650175
v -1.827873 6.670337 1.650175
v -4.210105 5.274841 1.650175
v -3.774378 4.800067 1.650175
vt 0.020833 1.000000
vt 0.000000 1.000000
vt 0.000000 0.750000
vt 0.020833 0.750000
vt 0.083333 1.000000
vt 0.083333 0.750000
vt 0.083333 0.750000
vt 0.083333 1.000000
vt 0.020366 0.687513
vt -0.000623 0.687518
vt 0.083333 0.687500
vt 0.083333 0.687500
vt 0.019195 0.249938
vt 0.018966 0.500053
vt -0.002490 0.500071
vt -0.002184 0.249918
vt 0.083333 0.500000
vt 0.083333 0.250000
vt 0.083333 0.250000
vt 0.083333 0.500000
vt 0.020424 0.062485
vt -0.000546 0.062479
vt 0.000000 0.000000
vt 0.020833 0.000000
vt 0.083333 0.062500
vt 0.083333 0.000000
vt 0.083333 0.000000
vt 0.083333 0.062500
vt 0.000000 0.000000
vt 1.000000 0.000000
vt 0.999950 0.446094
vt 0.000132 0.447221
vt 0.083333 0.187500
vt 0.083333 0.187500
vt -0.001638 0.187438
vt 0.019605 0.187454
vt 0.000397 1.341662
vt 0.999850 1.338283
vt 0.999800 1.784377
vt 0.000529 1.788883
vt 0.019433 0.562540
vt -0.001868 0.562553
vt 0.083333 0.562500
vt 0.083333 0.562500
vt 0.083333 0.687500
vt 0.083333 0.562500
vt 0.083333 0.562500
vt 0.083333 0.687500
vt 0.019433 0.562540
vt 0.020366 0.687513
vt 0.020833 1.000000
vt 0.020833 0.750000
vt 0.000000 0.750000
vt 0.000000 1.000000
vt 0.020366 0.687513
vt -0.000623 0.687518
vt 0.019195 0.249938
vt -0.002184 0.249918
vt -0.002490 0.500071
vt 0.018966 0.500053
vt 0.020424 0.062485
vt 0.020833 0.000000
vt 0.000000 0.000000
vt -0.000546 0.062479
vt 0.000000 0.000000
vt 0.000132 0.447221
vt 0.999950 0.446094
vt 1.000000 0.000000
vt 0.019605 0.187454
vt -0.001638 0.187438
vt 0.000397 1.341662
vt 0.000529 1.788883
vt 0.999800 1.784377
vt 0.999850 1.338283
vt 0.019433 0.562540
vt -0.001868 0.562553
vt 0.019433 0.562540
vt 0.020366 0.687513
vn -0.500000 -0.866025 0.000000
vn -0.500000 -0.866025 0.000000
vn -0.500000 -0.866025 0.000000
vn -0.500000 -0.866025 0.000000
vn -0.000016 -1.000000 0.000000
vn -0.000016 -1.000000 0.000000
vn -0.000016 -1.000000 0.000000
vn -0.000016 -1.000000 0.000000
vn 0.000000 0.000000 1.000000
vn 0.000000 0.000000 1.000000
vn 0.000000 0.000000 1.000000
vn 0.000000 0.000000 1.000000
vn 0.000000 0.000000 1.000000
vn 0.000000 0.000000 1.000000
vn 0.000000 0.000000 1.000000
vn 0.000000 0.000000 1.000000
vn 0.500000 0.866026 0.000000
vn 0.500000 0.866026 0.000000
vn 0.500000 0.866025 0.000000
vn 0.500000 0.866025 0.000000
vn 0.000005 1.000000 0.000000
vn 0.000005 1.000000 0.000000
vn 0.000005 1.000000 0.000000
vn 0.000005 1.000000 0.000000
vn 0.000000 0.000000 -1.000000
vn 0.000000 0.000000 -1.000000
vn 0.000000 0.000000 -1.000000
vn 0.000000 0.000000 -1.000000
vn 0.000000 0.000000 -1.000000
vn 0.000000 0.000000 -1.000000
vn -0.000000 0.000000 -1.000000
vn -0.000000 0.000000 -1.000000
vn 0.707107 -0.707107 0.000000
vn 0.707107 -0.707107 0.000000
vn 0.707107 -0.707107 0.000000
vn 0.707107 -0.707107 0.000000
vn -0.000000 0.000000 -1.000000
vn -0.000000 0.000000 -1.000000
vn 0.000000 0.000000 -1.000000
vn 0.000000 0.000000 -1.000000
vn -0.000000 0.000000 -1.000000
vn -0.000000 0.000000 -1.000000
vn -0.000000 0.000000 -1.000000
vn -0.000000 0.000000 -1.000000
vn 0.707107 -0.707107 0.000000
vn 0.707107 -0.707107 0.000000
vn 0.707106 -0.707107 0.000000
vn 0.707106 -0.707107 0.000000
vn 0.000000 0.000000 1.000000
vn 0.000000 0.000000 1.000000
vn 0.000000 0.000000 1.000000
vn 0.000000 0.000000 1.000000
vn 0.000000 0.000000 1.000000
vn 0.000000 0.000000 1.000000
vn 0.000000 0.000000 1.000000
vn 0.000000 0.000000 1.000000
vn -0.000000 0.000000 -1.000000
vn 0.000000 0.000000 -1.000000
vn -0.000000 0.000000 -1.000000
vn 0.000000 0.000000 -1.000000
vn 0.000000 0.000000 -1.000000
vn 0.000000 0.000000 -1.000000
vn -0.000000 0.000000 -1.000000
vn -0.000000 0.000000 -1.000000
vn 0.707107 -0.707107 0.000000
vn 0.707107 -0.707107 0.000000
vn 0.707107 -0.707107 0.000000
vn 0.707107 -0.707107 0.000000
vn 0.000000 0.000000 1.000000
vn 0.000000 0.000000 1.000000
vn 0.000000 0.000000 1.000000
vn 0.000000 0.000000 1.000000
vn 0.000000 0.000000 1.000000
vn 0.000000 0.000000 1.000000
vn 0.000000 0.000000 1.000000
vn 0.000000 0.000000 1.000000
vn -0.500000 -0.866026 0.000000
vn -0.500000 -0.866026 0.000000
vn -0.500000 -0.866026 0.000000
vn -0.500000 -0.866026 0.000000
vn 0.000000 0.000000 -1.000000
vn 0.000000 0.000000 -1.000000
vn 0.000000 0.000000 -1.000000
vn 0.000000 0.000000 -1.000000
vn 0.000000 0.000000 -1.000000
vn 0.000000 0.000000 -1.000000
vn -0.000000 0.000000 -1.000000
vn -0.000000 0.000000 -1.000000
vn -0.000000 0.000000 -1.000000
vn -0.000000 0.000000 -1.000000
vn -0.000000 0.000000 -1.000000
vn -0.000000 0.000000 -1.000000
vn 0.500000 0.866026 0.000000
vn 0.500000 0.866026 0.000000
vn 0.500000 0.866026 0.000000
vn 0.500000 0.866026 0.000000
vn 0.000000 0.000000 1.000000
vn 0.000000 0.000000 1.000000
vn 0.000000 0.000000 1.000000
vn 0.000000 0.000000 1.000000
vn 0.000000 0.000000 1.000000
vn 0.000000 0.000000 1.000000
vn 0.000000 0.000000 1.000000
vn 0.000000 0.000000 1.000000
vn 0.000000 0.000000 1.000000
vn 0.000000 0.000000 1.000000
vn 0.000000 0.000000 1.000000
vn 0.000000 0.000000 1.000000
vn 0.000012 1.000000 0.000000
vn 0.000012 1.000000 0.000000
vn 0.000012 1.000000 0.000000
vn 0.000012 1.000000 0.000000
vn -0.000007 -1.000000 0.000000
vn -0.000007 -1.000000 0.000000
vn -0.000007 -1.000000 0.000000
vn -0.000007 -1.000000 0.000000
vn -0.498978 -0.866615 0.000000
vn -0.498978 -0.866615 0.000000
vn -0.498978 -0.866615 0.000000
vn -0.498978 -0.866615 0.000000
vn 0.499767 0.866160 0.000000
vn 0.499767 0.866160 0.000000
vn 0.499767 0.866160 0.000000
vn 0.499767 0.866160 0.000000
vn -0.710120 0.704081 0.000000
vn -0.710120 0.704081 0.000000
vn -0.710120 0.704081 0.000000
vn -0.710120 0.704081 0.000000
vn 0.499991 -0.866031 0.000000
vn 0.499991 -0.866031 0.000000
vn 0.499992 -0.866030 0.000000
vn 0.499992 -0.866030 0.000000
vn 0.000000 0.000000 1.000000
vn 0.000000 0.000000 1.000000
vn 0.000000 0.000000 1.000000
vn 0.000000 0.000000 1.000000
vn -0.499991 0.866030 0.000000
vn -0.499992 0.866030 0.000000
vn -0.499992 0.866030 0.000000
vn -0.499991 0.866030 0.000000
vn -0.000000 0.000000 -1.000000
vn -0.000000 0.000000 -1.000000
vn -0.000000 0.000000 -1.000000
vn -0.000000 0.000000 -1.000000
vn -0.707106 -0.707107 0.000000
vn -0.707106 -0.707107 0.000000
vn -0.707106 -0.707107 0.000000
vn -0.707106 -0.707107 0.000000
vn -0.000000 0.000000 -1.000000
vn -0.000000 0.000000 -1.000000
vn -0.000000 0.000000 -1.000000
vn -0.000000 0.000000 -1.000000
vn -0.707107 -0.707107 0.000000
vn -0.707107 -0.707107 0.000000
vn -0.707107 -0.707107 0.000000
vn -0.707107 -0.707107 0.000000
vn 0.000000 0.000000 1.000000
vn 0.000000 0.000000 1.000000
vn 0.000000 0.000000 1.000000
vn 0.000000 0.000000 1.000000
vn -0.000000 0.000000 -1.000000
vn -0.000000 0.000000 -1.000000
vn -0.000000 0.000000 -1.000000
vn -0.000000 0.000000 -1.000000
vn -0.707107 -0.707107 0.000000
vn -0.707107 -0.707107 0.000000
vn -0.707106 -0.707107 0.000000
vn -0.707106 -0.707107 0.000000
vn 0.000000 0.000000 1.000000
vn 0.000000 0.000000 1.000000
vn 0.000000 0.000000 1.000000
vn 0.000000 0.000000 1.000000
vn 0.499991 -0.866031 0.000000
vn 0.499991 -0.866031 0.000000
vn 0.499991 -0.866031 0.000000
vn 0.499991 -0.866031 0.000000
vn -0.000000 0.000000 -1.000000
vn -0.000000 0.000000 -1.000000
vn -0.000000 0.000000 -1.000000
vn -0.000000 0.000000 -1.000000
vn -0.000000 0.000000 -1.000000
vn -0.000000 0.000000 -1.000000
vn 0.000000 0.000000 -1.000000
vn -0.000000 0.000000 -1.000000
vn 0.000000 0.000000 -1.000000
vn 0.000000 0.000000 -1.000000
vn -0.000000 0.000000 -1.000000
vn -0.000000 0.000000 -1.000000
vn -0.499991 0.866030 0.000000
vn -0.499991 0.866030 0.000000
vn -0.499991 0.866030 0.000000
vn -0.499991 0.866030 0.000000
vn 0.000000 0.000000 1.000000
vn 0.000000 0.000000 1.000000
vn 0.000000 0.000000 1.000000
vn 0.000000 0.000000 1.000000
vn 0.000000 0.000000 1.000000
vn 0.000000 0.000000 1.000000
vn 0.000000 0.000000 1.000000
vn 0.000000 0.000000 1.000000
vn 0.000000 0.000000 1.000000
vn 0.000000 0.000000 1.000000
vn 0.000000 0.000000 1.000000
vn 0.000000 0.000000 1.000000
vn 0.498970 -0.866619 0.000000
vn 0.498970 -0.866619 0.000000
vn 0.498970 -0.866619 0.000000
vn 0.498970 -0.866619 0.000000
vn -0.499759 0.866165 0.000000
vn -0.499759 0.866165 0.000000
vn -0.499759 0.866165 0.000000
vn -0.499759 0.866165 0.000000
vn 0.710120 0.704081 0.000000
vn 0.710120 0.704081 0.000000
vn 0.710120 0.704081 0.000000
vn 0.710120 0.704081 0.000000
s off
g Girder:pPipe3
usemtl Girder:initialShadingGroup
f 75/82/199 58/83/200 60/84/201 74/85/202
f 59/86/203 61/87/204 89/88/205 87/89/206
f 81/90/207 74/85/208 60/84/209 72/91/210
f 61/87/211 73/92/212 101/93/213 89/88/214
f 78/94/215 79/95/216 62/96/217 64/97/218
f 63/98/219 65/99/220 93/100/221 91/101/222
f 76/102/223 71/103/224 58/104/225 75/105/226
f 70/106/227 59/107/228 87/108/229 98/109/230
f 60/110/231 58/111/232 71/112/233 72/113/234
f 65/99/235 66/114/236 94/115/237 93/100/238
f 78/94/239 64/97/240 67/116/241 77/117/242
f 68/118/243 67/119/244 64/120/245 62/121/246
f 80/122/247 68/123/248 62/96/249 79/95/250
f 69/124/251 63/98/252 91/101/253 97/125/254
f 66/114/255 70/106/256 98/109/257 94/115/258
f 71/103/259 76/102/260 77/117/261 67/116/262
f 68/118/263 72/113/264 71/112/265 67/119/266
f 80/122/267 81/90/268 72/91/269 68/123/270
f 82/126/271 83/127/272 111/128/273 110/129/274
f 59/86/275 75/82/276 74/85/277 61/87/278
f 70/106/279 76/102/280 75/105/281 59/107/282
f 76/102/283 70/106/284 66/114/285 77/117/286
f 65/99/287 78/94/288 77/117/289 66/114/290
f 63/98/291 79/95/292 78/94/293 65/99/294
f 69/124/295 80/122/296 79/95/297 63/98/298
f 84/130/299 83/127/300 82/126/301 85/131/302
f 61/87/303 74/85/304 81/90/305 73/92/306
f 73/92/307 82/126/308 110/129/309 101/93/310
f 83/127/311 69/124/312 97/125/313 111/128/314
f 80/122/315 69/124/316 83/127/317 84/130/318
f 73/92/319 81/90/320 85/131/321 82/126/322
f 81/90/323 80/122/324 84/130/325 85/131/326
f 103/132/327 102/133/328 88/134/329 86/135/330
f 109/136/331 100/137/332 88/134/333 102/133/334
f 106/138/335 92/139/336 90/140/337 107/141/338
f 104/142/339 103/143/340 86/144/341 99/145/342
f 88/146/343 100/147/344 99/148/345 86/149/346
f 106/138/347 105/150/348 95/151/349 92/139/350
f 96/152/351 90/153/352 92/154/353 95/155/354
f 108/156/355 107/141/356 90/140/357 96/157/358
f 99/145/359 95/151/360 105/150/361 104/142/362
f 96/152/363 95/155/364 99/148/365 100/147/366
f 108/156/367 96/157/368 100/137/369 109/136/370
f 87/89/371 89/88/372 102/133/373 103/132/374
f 98/109/375 87/108/376 103/143/377 104/142/378
f 104/142/379 105/150/380 94/115/381 98/109/382
f 93/100/383 94/115/384 105/150/385 106/138/386
f 91/101/387 93/100/388 106/138/389 107/141/390
f 97/125/391 91/101/392 107/141/393 108/156/394
f 112/158/395 113/159/396 110/129/397 111/128/398
f 89/88/399 101/93/400 109/136/401 102/133/402
f 108/156/403 112/158/404 111/128/405 97/125/406
f 101/93/407 110/129/408 113/159/409 109/136/410
f 109/136/411 113/159/412 112/158/413 108/156/414
