# This file uses centimeters as units for non-parametric coordinates.

mtllib MeteoriteLow_02.mtl
g default
v 0.749728 0.467544 0.097111
v 0.701823 0.266810 0.632713
v 0.736603 0.773303 0.553596
v 0.737425 0.778309 0.326685
v 0.814143 0.494372 0.465835
v 0.511559 0.577105 0.849623
v 0.484177 0.950903 0.332867
v 0.330502 0.896226 0.582060
v 0.199598 0.702726 0.759952
v 0.134749 0.406975 0.801286
v 0.083183 0.588823 0.812637
v -0.251207 0.358566 0.687483
v -0.166597 0.575514 0.811690
v -0.289812 0.735307 0.697810
v -0.268256 0.994391 0.516303
v 0.003358 1.106236 0.326053
v -0.019617 0.752355 -0.125114
v -0.464338 0.769674 0.308956
v -0.421790 0.601770 0.525312
v 0.519692 0.304423 -0.017639
v 0.469788 0.586753 -0.097278
v 0.280906 0.066102 0.567615
v -0.367193 0.178582 0.572515
v 0.400871 0.333787 -0.360948
v -0.011646 0.580311 -0.330008
v -0.481465 0.349901 0.217543
v -0.410434 0.535365 -0.166788
v 0.321776 0.319782 -0.139479
vt 0.930672 0.851751
vt 0.977920 0.675320
vt 0.858260 0.784240
vt 0.892470 0.511630
vt 0.942890 0.483110
vt 0.792650 0.597020
vt 0.866180 0.390400
vt 0.777290 0.444930
vt 0.681590 0.435450
vt 0.635210 0.460600
vt 0.998040 0.423780
vt 0.938230 0.302100
vt 0.762760 0.169000
vt 0.843580 0.147480
vt 0.714030 0.001950
vt 0.526813 0.082732
vt 0.805120 0.255500
vt 0.792690 0.338800
vt 0.772860 0.383960
vt 0.465220 0.180630
vt 0.654640 0.206580
vt 0.295698 0.092861
vt 0.351159 0.173815
vt 0.659600 0.274190
vt 0.682750 0.344010
vt 0.710940 0.385780
vt 0.620710 0.357740
vt 0.530280 0.384200
vt 0.571930 0.302030
vt 0.421150 0.310630
vt 0.241101 0.691279
vt 0.772362 0.691279
vt 0.590890 0.844185
vt 0.328347 0.869636
vt 0.357328 0.743892
vt 0.163088 0.371300
vt 0.397100 0.371300
vt 0.266250 0.651894
vt 0.163088 0.371300
vt 0.397100 0.371300
vt 0.188807 0.676318
vn 0.522002 -0.144836 -0.840557
vn 0.522002 -0.144836 -0.840557
vn 0.522002 -0.144836 -0.840557
vn 0.855704 -0.505035 -0.112743
vn 0.855704 -0.505035 -0.112743
vn 0.855704 -0.505035 -0.112743
vn 0.518852 -0.832685 -0.193464
vn 0.518852 -0.832685 -0.193464
vn 0.518853 -0.832685 -0.193464
vn 0.518852 -0.832685 -0.193464
vn 0.122226 -0.521275 0.844591
vn 0.122226 -0.521275 0.844591
vn 0.122226 -0.521275 0.844591
vn 0.122226 -0.521275 0.844591
vn -0.121045 -0.556989 0.821652
vn -0.121045 -0.556989 0.821652
vn -0.121045 -0.556989 0.821652
vn -0.121045 -0.556989 0.821652
vn 0.971771 0.207987 -0.111371
vn 0.971771 0.207987 -0.111371
vn 0.971771 0.207987 -0.111371
vn 0.971770 0.207987 -0.111371
vn 0.535920 0.589306 -0.604573
vn 0.535920 0.589306 -0.604573
vn 0.535920 0.589306 -0.604573
vn 0.535920 0.589306 -0.604573
vn 0.788947 0.041587 0.613053
vn 0.788947 0.041587 0.613053
vn 0.788947 0.041587 0.613053
vn 0.788947 0.041587 0.613053
vn 0.407366 0.880464 0.242563
vn 0.407366 0.880464 0.242563
vn 0.407366 0.880464 0.242563
vn 0.407366 0.880464 0.242563
vn 0.178946 0.689757 0.701579
vn 0.178946 0.689757 0.701579
vn 0.178945 0.689757 0.701579
vn 0.178945 0.689757 0.701579
vn -0.080759 0.155309 0.984559
vn -0.080759 0.155309 0.984559
vn -0.080759 0.155309 0.984559
vn -0.080759 0.155309 0.984559
vn 0.267252 0.741489 -0.615444
vn 0.267252 0.741489 -0.615444
vn 0.267252 0.741489 -0.615444
vn 0.267252 0.741489 -0.615444
vn 0.310157 0.683743 -0.660529
vn 0.310157 0.683743 -0.660529
vn 0.310157 0.683743 -0.660529
vn 0.310157 0.683743 -0.660529
vn 0.168383 0.856683 0.487588
vn 0.168383 0.856682 0.487588
vn 0.168383 0.856682 0.487588
vn 0.168383 0.856682 0.487588
vn -0.016591 0.625212 0.780279
vn -0.016591 0.625212 0.780279
vn -0.016591 0.625212 0.780279
vn -0.016591 0.625212 0.780279
vn -0.059335 0.517878 0.853394
vn -0.059335 0.517878 0.853394
vn -0.059335 0.517878 0.853394
vn -0.059335 0.517878 0.853394
vn -0.139918 -0.308254 0.940958
vn -0.139918 -0.308254 0.940958
vn -0.139918 -0.308254 0.940958
vn -0.139918 -0.308254 0.940958
vn -0.747531 -0.094622 0.657453
vn -0.747531 -0.094622 0.657453
vn -0.747531 -0.094622 0.657453
vn -0.747531 -0.094622 0.657453
vn -0.895530 -0.066455 0.440011
vn -0.895530 -0.066455 0.440011
vn -0.895530 -0.066455 0.440011
vn -0.895530 -0.066455 0.440011
vn -0.846260 0.340335 0.409898
vn -0.846260 0.340335 0.409898
vn -0.846260 0.340335 0.409898
vn -0.846260 0.340335 0.409898
vn -0.504487 0.724878 -0.469089
vn -0.504487 0.724878 -0.469089
vn -0.504487 0.724878 -0.469089
vn -0.504487 0.724878 -0.469089
vn -0.379207 0.778913 -0.499497
vn -0.379207 0.778913 -0.499497
vn -0.379207 0.778913 -0.499497
vn -0.379207 0.778913 -0.499497
vn -0.998760 0.045263 -0.020731
vn -0.998760 0.045263 -0.020731
vn -0.998760 0.045263 -0.020731
vn -0.998760 0.045263 -0.020731
vn -0.157761 -0.890407 -0.426951
vn -0.142183 -0.902675 -0.406156
vn -0.148006 -0.892574 -0.425917
vn -0.139603 -0.896268 -0.420968
vn -0.146092 -0.880120 -0.451714
vn -0.250259 -0.896346 -0.365971
vn -0.250260 -0.896346 -0.365971
vn -0.277505 -0.893000 -0.354318
vn -0.302970 -0.889118 -0.343042
vn -0.511549 -0.826506 -0.234961
vn 0.510000 -0.148831 -0.847201
vn 0.510000 -0.148831 -0.847201
vn 0.510000 -0.148831 -0.847201
vn 0.825489 -0.499271 0.263240
vn 0.825490 -0.499271 0.263240
vn 0.825490 -0.499271 0.263240
s off
g polySurface1 MeteoriteLow_01:Group2496
usemtl initialShadingGroup
f 21/1/1 1/2/2 20/3/3
f 2/4/4 1/2/5 5/5/6
f 22/6/7 20/3/8 1/2/9 2/4/10
f 22/6/11 2/4/12 6/7/13 10/8/14
f 22/6/15 10/8/16 12/9/17 23/10/18
f 1/2/19 4/11/20 3/12/21 5/5/22
f 7/13/23 4/14/24 1/15/25 21/16/26
f 6/7/27 2/4/28 5/5/29 3/12/30
f 8/17/31 3/12/32 4/14/33 7/13/34
f 3/12/35 8/17/36 9/18/37 6/7/38
f 6/7/39 9/18/40 11/19/41 10/8/42
f 21/16/43 17/20/44 16/21/45 7/13/46
f 24/22/47 25/23/48 17/20/49 21/16/50
f 15/24/51 8/17/52 7/13/53 16/21/54
f 8/17/55 15/24/56 14/25/57 9/18/58
f 14/25/59 13/26/60 11/19/61 9/18/62
f 12/9/63 10/8/64 11/19/65 13/26/66
f 19/27/67 12/9/68 13/26/69 14/25/70
f 26/28/71 23/10/72 12/9/73 19/27/74
f 15/24/75 18/29/76 19/27/77 14/25/78
f 17/20/79 18/29/80 15/24/81 16/21/82
f 18/29/83 17/20/84 25/23/85 27/30/86
f 27/30/87 26/28/88 19/27/89 18/29/90
s 1
f 22/6/91 23/10/92 20/3/93
f 23/10/92 26/28/94 20/3/93
f 26/28/94 27/30/95 20/3/93
s 2
f 20/31/96 27/32/97 25/33/98 28/35/99
f 28/35/99 25/33/98 24/34/100
s off
f 20/36/101 28/37/102 21/38/103
f 28/39/104 24/40/105 21/41/106
g default
v 0.280906 0.066102 0.567615
v 0.519692 0.304423 -0.017639
v 0.469788 0.586753 -0.097278
v -0.367193 0.178582 0.572515
v -0.481465 0.349901 0.217543
v -0.410434 0.535365 -0.166788
v 0.400871 0.333787 -0.360948
v 0.582051 0.092069 -0.166005
v 0.460806 -0.095950 0.292312
v 0.103254 -0.126346 0.529781
v 0.231972 -0.458915 0.384848
v -0.445198 -0.117719 0.497747
v -0.043325 -0.412530 0.574558
v -0.206187 -0.432200 0.509304
v 0.036010 -0.613715 0.310640
v -0.312518 -0.572422 0.130250
v -0.496077 0.041681 0.360035
v -0.468330 -0.323830 0.265741
v -0.473537 -0.293863 0.438454
v -0.282670 -0.390812 0.358427
v -0.296529 -0.437189 0.143379
v -0.240393 -0.652845 0.026579
v 0.001681 -0.684541 0.102870
v 0.305434 -0.508706 0.147007
v 0.495407 -0.299546 0.105457
v 0.502104 -0.116840 -0.241380
v 0.394892 -0.455507 -0.213648
v 0.067600 -0.541714 -0.239985
v -0.292942 -0.507795 -0.228811
v -0.459285 -0.306233 -0.087122
v -0.572771 -0.103671 -0.004003
v -0.641039 -0.044110 0.227039
v -0.635901 0.016978 0.315427
v -0.675939 0.302849 0.196621
v -0.778820 0.222566 0.129433
v -0.670107 0.157709 -0.173444
v -0.620888 0.379200 0.110124
v -0.551920 0.251432 -0.221608
v 0.532833 0.164465 -0.513543
v 0.519692 0.304423 -0.017639
v 0.400871 0.333787 -0.360948
v 0.469788 0.586753 -0.097278
v 0.469788 0.586753 -0.097278
vt 0.792650 0.597020
vt 0.737310 0.717650
vt 0.756190 0.851180
vt 0.858260 0.784240
vt 0.635210 0.460600
vt 0.595640 0.509420
vt 0.719700 0.601630
vt 0.652730 0.689000
vt 0.749800 0.951929
vt 0.530280 0.384200
vt 0.560760 0.468630
vt 0.445929 0.346386
vt 0.401407 0.412272
vt 0.486680 0.407440
vt 0.501750 0.426870
vt 0.527050 0.481520
vt 0.473270 0.446030
vt 0.649220 0.878290
vt 0.594740 0.985920
vt 0.666000 0.770720
vt 0.609510 0.744590
vt 0.637320 0.612000
vt 0.592340 0.680630
vt 0.600140 0.596190
vt 0.537330 0.708600
vt 0.563000 0.540730
vt 0.562570 0.589770
vt 0.522101 0.561605
vt 0.512580 0.638970
vt 0.509200 0.610980
vt 0.498260 0.667500
vt 0.418690 0.663590
vt 0.503410 0.500590
vt 0.436763 0.581600
vt 0.450830 0.524470
vt 0.468799 0.765320
vt 0.553810 0.818340
vt 0.403440 0.451560
vt 0.687629 0.402036
vt 0.806553 0.503864
vt 0.181242 0.183831
vt 0.380005 0.274749
vt 0.249316 0.476712
vt 0.499600 0.206405
vt 0.743133 0.206405
vt 0.652865 0.290168
vt 0.536449 0.261647
vt 0.257665 0.542306
vt 0.365918 0.542306
vt 0.318232 0.689929
vt 0.000000 0.000000
vt 1.000000 0.000000
vt 1.000000 1.000000
vt 0.000000 1.000000
vt 0.411576 0.438610
vt 0.588424 0.438610
vt 0.466813 0.627076
vt 0.406475 0.183869
vt 0.772920 0.402054
vn 0.870653 0.214600 0.442617
vn 0.888879 0.191477 0.416211
vn 0.928505 0.132092 0.347030
vn 0.954896 0.080766 0.285744
vn -0.022541 -0.172778 0.984703
vn -0.051934 -0.216744 0.974846
vn -0.032973 -0.188428 0.981533
vn -0.060350 -0.229258 0.971493
vn 0.555997 -0.141728 0.819012
vn 0.546866 -0.286254 0.786763
vn 0.544296 -0.308736 0.780015
vn 0.485297 -0.577116 0.656829
vn 0.861608 0.435346 -0.260971
vn 0.861608 0.435346 -0.260971
vn 0.861608 0.435346 -0.260971
vn -0.890594 0.224957 0.395268
vn -0.888559 0.184852 0.419873
vn -0.888928 0.189990 0.416787
vn -0.880596 0.115881 0.459481
vn -0.127673 0.902281 0.411811
vn -0.751525 0.621756 -0.220521
vn -0.532691 0.843347 0.070760
vn -0.809786 0.471060 -0.349784
vn -0.196756 0.419102 0.886364
vn -0.225506 0.400420 0.888150
vn -0.276881 0.365395 0.888720
vn -0.338814 0.320217 0.884684
vn -0.678914 0.708352 0.193165
vn -0.522094 0.776392 0.353034
vn -0.381748 0.799883 0.463094
vn -0.252088 0.799469 0.545253
vn 0.937617 -0.289169 -0.193019
vn 0.937324 0.343027 -0.061284
vn 0.990447 0.040391 -0.131849
vn 0.794696 0.606849 0.013871
vn 0.970477 -0.051356 0.235664
vn 0.981243 -0.105057 0.161632
vn 0.980564 -0.193182 0.034284
vn 0.940444 -0.307921 -0.144045
vn 0.772857 -0.352770 0.527490
vn 0.762382 -0.457036 0.458139
vn 0.768414 -0.412642 0.489149
vn 0.727269 -0.591338 0.348424
vn 0.543877 -0.149363 0.825766
vn 0.490595 -0.350740 0.797683
vn 0.452998 -0.452660 0.768044
vn 0.317580 -0.705661 0.633392
vn -0.058429 -0.007722 0.998262
vn -0.102116 0.036757 0.994093
vn -0.099214 0.033794 0.994492
vn -0.385112 0.331978 0.861092
vn 0.465536 -0.858347 0.215678
vn 0.489863 -0.827010 0.275841
vn 0.482057 -0.837906 0.255997
vn 0.507860 -0.798203 0.323961
vn -0.364377 -0.243904 0.898744
vn -0.423844 -0.403935 0.810674
vn -0.499428 -0.713560 0.491329
vn -0.456944 -0.889410 -0.012346
vn -0.969273 -0.127803 0.210182
vn -0.989977 -0.041013 0.135143
vn -0.979949 -0.090074 0.177729
vn -0.982094 0.178395 -0.060561
vn -0.311615 -0.859419 0.405334
vn -0.283572 -0.854567 0.435089
vn -0.252345 -0.847600 0.466794
vn -0.133014 -0.807085 0.575257
vn -0.879759 -0.309174 0.361158
vn -0.908933 -0.260070 0.325891
vn -0.983824 -0.053217 0.171050
vn -0.992748 0.113543 0.039490
vn -0.287371 -0.891093 0.351243
vn -0.276769 -0.873440 0.400628
vn -0.284202 -0.885942 0.366520
vn -0.259295 -0.842114 0.472874
vn -0.961012 -0.273209 0.042569
vn -0.968209 -0.250117 -0.003527
vn -0.971977 -0.231789 -0.039178
vn -0.752597 0.151203 -0.640886
vn -0.572566 -0.245285 0.782307
vn -0.540520 -0.303260 0.784775
vn -0.539597 -0.304848 0.784794
vn -0.036655 -0.821094 0.569614
vn -0.425294 -0.878680 0.216901
vn -0.416083 -0.889050 0.190958
vn -0.412526 -0.892751 0.181157
vn -0.399059 -0.905379 0.145057
vn -0.721554 -0.681467 0.122324
vn -0.646087 -0.762924 0.022758
vn -0.682626 -0.727535 0.068665
vn -0.577096 -0.814793 -0.055425
vn -0.838777 -0.533166 -0.110396
vn -0.838777 -0.533166 -0.110396
vn -0.838777 -0.533166 -0.110396
vn -0.096978 -0.873880 -0.476371
vn -0.055308 -0.897282 -0.437981
vn -0.049136 -0.900452 -0.432172
vn 0.000306 -0.923126 -0.384498
vn 0.512149 -0.823354 -0.244525
vn 0.387927 -0.907519 -0.161003
vn 0.402459 -0.899396 -0.170627
vn 0.259770 -0.962552 -0.077548
vn 0.939843 -0.309387 -0.144829
vn 0.865970 -0.499268 -0.028756
vn 0.892161 -0.447394 -0.062359
vn 0.746000 -0.660151 0.087664
vn -0.863095 -0.458578 -0.211596
vn -0.863199 -0.473096 -0.176259
vn -0.863269 -0.470754 -0.182094
vn -0.861314 -0.491755 -0.127731
vn -0.670410 0.636721 -0.380968
vn -0.670410 0.636721 -0.380968
vn -0.670410 0.636721 -0.380968
vn -0.670410 0.636721 -0.380968
vn -0.645750 0.214150 0.732903
vn -0.713097 0.127887 0.689302
vn -0.868525 -0.189388 0.458035
vn -0.888712 -0.351368 0.294504
vn 0.069814 -0.524196 -0.848731
vn -0.407326 -0.459677 -0.789165
vn -0.783029 -0.290911 -0.549760
vn -0.860923 -0.302029 -0.409378
vn 0.099285 -0.224511 -0.969400
vn -0.198842 0.130725 -0.971274
vn 0.000115 0.900612 0.434623
vn 0.155174 0.893223 0.421988
vn 0.152077 0.892701 0.424214
vn 0.155136 0.892240 0.424077
vn -0.826659 -0.257924 -0.500111
vn 0.030692 0.591643 -0.805616
vn 0.030692 0.591643 -0.805616
vn 0.030692 0.591643 -0.805616
vn 0.153176 0.891826 0.425657
vn 0.109893 -0.115624 -0.987195
vn -0.160071 -0.070874 -0.984558
vn -0.090923 0.255442 0.962540
vn -0.090923 0.255442 0.962540
vn -0.090923 0.255442 0.962540
vn 0.012776 0.719873 -0.693988
vn -0.212876 0.081098 -0.973708
vn -0.307449 -0.071971 -0.948839
vn -0.281239 -0.074243 -0.956762
vn -0.143721 -0.084989 -0.985962
vn 0.543735 -0.110317 -0.831975
vn -0.879441 -0.473764 -0.046168
vn -0.879441 -0.473764 -0.046168
vn -0.879441 -0.473764 -0.046168
vn 0.000000 0.000000 0.000000
vn 0.000000 0.000000 0.000000
vn 0.000000 0.000000 0.000000
vn 0.000000 0.000000 0.000000
vn 0.944232 0.076565 -0.320255
vn 0.944232 0.076565 -0.320255
vn 0.944232 0.076565 -0.320255
s 1
g MeteoriteLow_01:Group2496 polySurface3 polySurface2
usemtl initialShadingGroup
f 29/42/107 37/43/108 30/45/109
f 30/45/109 37/43/108 36/44/110
s 2
f 29/42/111 32/46/112 38/48/113
f 38/48/113 32/46/112 40/47/114
s 3
f 39/49/115 37/43/116 38/48/117
f 38/48/117 37/43/116 29/42/118
s off
f 35/50/119 30/45/120 36/44/121
s 4
f 33/51/122 45/52/123 32/46/124
f 32/46/124 45/52/123 40/47/125
s 5
f 33/51/126 34/53/127 65/55/128
f 65/55/128 34/53/127 66/54/129
s 6
f 33/51/130 62/56/131 45/52/132
f 45/52/132 62/56/131 61/57/133
s 7
f 63/58/134 62/56/135 65/55/136
f 65/55/136 62/56/135 33/51/137
s 8
f 54/59/138 67/60/139 36/44/140
f 36/44/140 67/60/139 35/50/141
s 9
f 37/43/142 53/61/143 36/44/144
f 36/44/144 53/61/143 54/59/145
s 10
f 37/43/146 39/49/147 53/61/148
f 53/61/148 39/49/147 52/62/149
s 11
f 38/48/150 41/63/151 39/49/152
f 39/49/152 41/63/151 43/64/153
s 12
f 40/47/154 42/65/155 38/48/156
f 38/48/156 42/65/155 41/63/157
s 13
f 51/66/158 52/62/159 43/64/160
f 43/64/160 52/62/159 39/49/161
s 14
f 40/47/162 47/67/163 42/65/164
f 42/65/164 47/67/163 48/68/165
s 15
f 45/52/166 46/69/167 40/47/168
f 40/47/168 46/69/167 47/67/169
s 16
f 44/70/170 43/64/171 42/65/172
f 42/65/172 43/64/171 41/63/173
s 17
f 42/65/174 48/68/175 44/70/176
f 44/70/176 48/68/175 49/71/177
s 18
f 43/64/178 44/70/179 51/66/180
f 51/66/180 44/70/179 50/72/181
s 19
f 57/73/182 50/72/183 49/71/184
f 49/71/184 50/72/183 44/70/185
s 20
f 46/69/186 45/52/187 60/74/188
f 60/74/188 45/52/187 61/57/189
s 21
f 49/71/190 48/68/191 46/69/192
f 46/69/192 48/68/191 47/67/193
s 22
f 57/73/194 49/71/195 58/75/196
f 58/75/196 49/71/195 46/69/197
s off
f 59/76/198 46/69/199 60/74/200
s 23
f 57/73/201 56/77/202 50/72/203
f 50/72/203 56/77/202 51/66/204
s 24
f 51/66/205 56/77/206 52/62/207
f 52/62/207 56/77/206 55/78/208
s 25
f 54/59/209 53/61/210 55/78/211
f 55/78/211 53/61/210 52/62/212
s 26
f 64/79/213 59/76/214 63/58/215
f 63/58/215 59/76/214 60/74/216
s off
f 66/54/217 64/79/218 63/58/219 65/55/220
s 27
f 62/56/221 63/58/222 61/57/223
f 61/57/223 63/58/222 60/74/224
s 28
f 64/79/225 66/54/226 59/76/227
s 29
f 67/60/228 54/59/229 35/50/230
s 30
f 33/51/231 32/46/232 34/53/233
f 32/46/232 29/42/234 34/53/233
s 28
f 59/76/227 66/54/226 58/75/235
s off
f 57/73/236 58/75/237 56/77/238
s 30
f 29/42/234 30/45/239 34/53/233
s 29
f 55/78/240 56/77/241 54/59/229
f 54/59/229 56/77/241 35/50/230
s off
f 30/80/242 70/100/243 34/81/244
s 29
f 71/99/245 35/83/230 34/82/246
f 34/82/246 35/83/230 56/84/241
s 31
f 56/86/247 58/87/248 34/85/249
f 34/85/249 58/87/248 66/88/250
s off
f 59/89/251 58/90/252 46/91/253
f 30/92/254 35/93/255 69/94/256 68/95/257
f 68/96/258 69/97/259 31/98/260
g default
v -0.611766 0.232265 -0.565429
v -0.550174 -0.073155 -0.334782
v -0.337537 -0.339352 -0.557871
v -0.455549 0.084101 -0.874702
v -0.469480 0.465993 -0.593740
v -0.011646 0.580311 -0.330008
v -0.029918 0.550971 -0.591190
v -0.013693 0.516843 -0.827662
v -0.184734 0.447082 -0.962917
v -0.405369 0.031913 -1.002430
v -0.187266 0.156340 -1.124937
v 0.381029 0.329771 -0.651891
v 0.226429 0.265500 -0.932946
v 0.492584 0.113341 -0.668807
v 0.378602 -0.365453 -0.510493
v 0.081662 -0.521461 -0.491347
v -0.175273 -0.341552 -0.925717
v 0.146665 -0.393836 -0.806516
v -0.026591 -0.163451 -1.117653
v 0.408977 -0.260524 -0.536525
v 0.271132 0.004987 -0.990301
v -0.551920 0.251432 -0.221608
v -0.410434 0.535365 -0.166788
v 0.400871 0.333787 -0.360948
v 0.532833 0.164465 -0.513543
v 0.502104 -0.116840 -0.241380
v 0.394892 -0.455507 -0.213648
v 0.067600 -0.541714 -0.239985
v -0.292942 -0.507795 -0.228811
v -0.459285 -0.306233 -0.087122
v -0.572771 -0.103671 -0.004003
v -0.670107 0.157709 -0.173444
vt 0.421150 0.310630
vt 0.310430 0.378360
vt 0.320050 0.451570
vt 0.398040 0.406290
vt 0.366730 0.202700
vt 0.278360 0.261610
vt 0.173560 0.193800
vt 0.287610 0.087250
vt 0.147200 0.122160
vt 0.090550 0.186910
vt 0.649220 0.878290
vt 0.553810 0.818340
vt 0.481570 0.858340
vt 0.481330 0.881710
vt 0.479820 0.998040
vt 0.594740 0.985920
vt 0.468690 0.756830
vt 0.407510 0.775670
vt 0.322760 0.652160
vt 0.418690 0.663590
vt 0.371270 0.536780
vt 0.437120 0.586920
vt 0.403440 0.451560
vt 0.450830 0.524470
vt 0.246690 0.522980
vt 0.207240 0.410080
vt 0.213670 0.545820
vt 0.220070 0.685320
vt 0.315900 0.799730
vt 0.150560 0.523910
vt 0.214190 0.331610
vt 0.120430 0.345070
vt 0.143280 0.668970
vt 0.036590 0.421720
vt 0.244460 0.887580
vt 0.440789 0.679254
vt 0.442556 0.616640
vt 0.468694 0.699841
vt 0.720532 0.678233
vt 0.682879 0.716381
vt 0.697824 0.606913
vt 0.669749 0.527930
vt 0.598130 0.516393
vt 0.491523 0.763288
vt 0.589674 0.773643
vt 0.521717 0.530635
vt 0.474493 0.572208
vn -0.875777 0.475970 0.080414
vn -0.875777 0.475970 0.080414
vn -0.875777 0.475970 0.080414
vn -0.875777 0.475970 0.080414
vn -0.174557 0.977237 -0.120570
vn -0.174557 0.977237 -0.120570
vn -0.174557 0.977237 -0.120570
vn -0.174557 0.977237 -0.120570
vn 0.484798 0.870383 -0.086050
vn 0.484798 0.870383 -0.086050
vn 0.484798 0.870383 -0.086050
vn 0.484798 0.870383 -0.086050
vn 0.794645 0.580174 -0.178711
vn 0.794645 0.580174 -0.178711
vn 0.794645 0.580174 -0.178711
vn 0.794645 0.580174 -0.178711
vn 0.939788 -0.309146 -0.145695
vn 0.939788 -0.309146 -0.145695
vn 0.939788 -0.309146 -0.145695
vn 0.939788 -0.309146 -0.145695
vn 0.949217 -0.267696 -0.165304
vn 0.949217 -0.267696 -0.165304
vn 0.949217 -0.267696 -0.165304
vn 0.949217 -0.267696 -0.165304
vn 0.357314 -0.915351 -0.185634
vn 0.357314 -0.915351 -0.185634
vn 0.357314 -0.915351 -0.185634
vn 0.357314 -0.915351 -0.185634
vn -0.236475 -0.927622 -0.289131
vn -0.236475 -0.927622 -0.289131
vn -0.236475 -0.927622 -0.289131
vn -0.236475 -0.927622 -0.289131
vn -0.827595 -0.532839 -0.176551
vn -0.827595 -0.532839 -0.176551
vn -0.827595 -0.532839 -0.176551
vn -0.827595 -0.532839 -0.176551
vn -0.898580 -0.427079 -0.100787
vn -0.898580 -0.427079 -0.100787
vn -0.898580 -0.427079 -0.100787
vn -0.898580 -0.427079 -0.100787
vn -0.989346 0.043155 -0.139040
vn -0.989346 0.043155 -0.139040
vn -0.989346 0.043155 -0.139040
vn -0.989346 0.043155 -0.139040
vn -0.865755 -0.418960 -0.273754
vn -0.865755 -0.418960 -0.273754
vn -0.865755 -0.418960 -0.273754
vn -0.865755 -0.418960 -0.273754
vn -0.724759 0.390961 -0.567340
vn -0.724759 0.390961 -0.567340
vn -0.724759 0.390961 -0.567340
vn -0.724759 0.390961 -0.567340
vn -0.814089 -0.500808 -0.294025
vn -0.814089 -0.500808 -0.294025
vn -0.814089 -0.500808 -0.294025
vn -0.814089 -0.500808 -0.294025
vn -0.234313 -0.939343 -0.250462
vn -0.234313 -0.939343 -0.250462
vn -0.234313 -0.939343 -0.250462
vn -0.234313 -0.939343 -0.250462
vn -0.677347 0.417607 -0.605644
vn -0.677347 0.417607 -0.605644
vn -0.677347 0.417607 -0.605644
vn -0.677347 0.417607 -0.605644
vn -0.202071 0.961807 -0.184646
vn -0.202071 0.961807 -0.184646
vn -0.202071 0.961807 -0.184646
vn -0.202071 0.961807 -0.184646
vn 0.512396 0.808070 -0.290643
vn 0.512396 0.808070 -0.290643
vn 0.512396 0.808070 -0.290643
vn 0.512396 0.808070 -0.290643
vn 0.289147 0.522316 -0.802234
vn 0.289147 0.522316 -0.802234
vn 0.289147 0.522316 -0.802234
vn 0.289147 0.522316 -0.802234
vn -0.431202 -0.344114 -0.834057
vn -0.431202 -0.344114 -0.834057
vn -0.431202 -0.344114 -0.834057
vn -0.431202 -0.344114 -0.834057
vn 0.335925 0.198337 -0.920770
vn 0.335925 0.198337 -0.920770
vn 0.335925 0.198337 -0.920770
vn 0.335925 0.198337 -0.920770
vn 0.753254 0.334934 -0.566063
vn 0.753254 0.334934 -0.566063
vn 0.753254 0.334934 -0.566063
vn 0.753254 0.334934 -0.566063
vn 0.781940 -0.404553 -0.474243
vn 0.781940 -0.404553 -0.474243
vn 0.781940 -0.404553 -0.474243
vn 0.781940 -0.404553 -0.474243
vn 0.550879 -0.753237 -0.359398
vn 0.550879 -0.753237 -0.359398
vn 0.550879 -0.753237 -0.359398
vn 0.550879 -0.753237 -0.359398
vn 0.386940 -0.624832 -0.678132
vn 0.386940 -0.624832 -0.678132
vn 0.386940 -0.624832 -0.678132
vn 0.386940 -0.624832 -0.678132
vn -0.069814 0.524196 0.848731
vn 0.783029 0.290911 0.549760
vn 0.150321 0.082128 0.985220
vn 0.860923 0.302029 0.409378
vn 0.198632 0.262592 0.944241
vn 0.091336 0.122426 0.988266
vn -0.109893 0.115624 0.987195
vn 0.011946 -0.003407 0.999923
vn 0.387996 -0.357370 0.849556
vn 0.161342 0.059645 0.985094
vn 0.138067 0.037706 0.989705
vn 0.796880 0.263479 0.543655
s off
g MeteoriteLow_01:Group2496 polySurface2 polySurface4
usemtl initialShadingGroup
f 94/101/261 76/102/262 72/103/263 93/104/264
f 94/101/265 77/105/266 78/106/267 76/102/268
f 83/107/269 78/106/270 77/105/271 95/108/272
f 95/108/273 96/109/274 85/110/275 83/107/276
f 97/111/277 98/112/278 86/113/279 91/114/280
f 97/111/281 91/114/282 85/115/283 96/116/284
f 86/113/285 98/112/286 99/117/287 87/118/288
f 74/119/289 87/118/290 99/117/291 100/120/292
f 73/121/293 74/119/294 100/120/295 101/122/296
f 103/123/297 73/121/298 101/122/299 102/124/300
f 72/103/301 73/121/302 103/123/303 93/104/304
f 74/119/305 73/121/306 72/103/307 75/125/308
f 80/126/309 75/125/310 72/103/311 76/102/312
f 74/119/313 75/125/314 81/127/315 88/128/316
f 74/119/317 88/128/318 89/129/319 87/118/320
f 80/126/321 82/130/322 81/127/323 75/125/324
f 76/102/325 78/106/326 79/131/327 80/126/328
f 78/106/329 83/107/330 84/132/331 79/131/332
f 82/130/333 80/126/334 79/131/335 84/132/336
f 88/128/337 81/127/338 82/130/339 90/133/340
f 82/130/341 84/132/342 92/134/343 90/133/344
f 92/134/345 84/132/346 83/107/347 85/110/348
f 89/129/349 92/135/350 85/115/351 91/114/352
f 87/118/353 89/129/354 91/114/355 86/113/356
f 92/135/357 89/129/358 88/128/359 90/133/360
s 1
f 103/136/361 102/137/362 93/138/363
f 96/139/364 95/140/365 97/141/366
f 98/142/367 97/141/366 99/143/368
f 94/144/369 93/138/363 77/145/370
f 77/145/370 93/138/363 95/140/365
f 95/140/365 93/138/363 97/141/366
f 97/141/366 93/138/363 99/143/368
f 99/143/368 93/138/363 100/146/371
f 100/146/371 93/138/363 101/147/372
f 93/138/363 102/137/362 101/147/372
